<svg xmlns="http://www.w3.org/2000/svg" xmlns:xlink="http://www.w3.org/1999/xlink" viewBox="0 0 135.59 129.61"><defs><style>.cls-1{fill:url(#未命名的渐变_43);}.cls-2{fill:url(#未命名的渐变_30);}.cls-3{fill:url(#未命名的渐变_30-2);}.cls-4{fill:url(#未命名的渐变_55);}.cls-5{fill:url(#未命名的渐变_30-3);}.cls-6{fill:url(#未命名的渐变_12);}.cls-7{fill:url(#未命名的渐变_12-2);}.cls-8{fill:url(#未命名的渐变_28);}.cls-9{fill:url(#未命名的渐变_40);}</style><radialGradient id="未命名的渐变_43" cx="53.4" cy="33.55" r="21.83" gradientTransform="translate(11.63 -21.98) rotate(-4.37)" gradientUnits="userSpaceOnUse"><stop offset="0" stop-color="#ffec96"/><stop offset="0.56" stop-color="#d0aa57"/><stop offset="1" stop-color="#a97322"/></radialGradient><radialGradient id="未命名的渐变_30" cx="24.82" cy="55.83" r="83.06" gradientTransform="translate(11.63 -21.98) rotate(-4.37)" gradientUnits="userSpaceOnUse"><stop offset="0" stop-color="#ffec96"/><stop offset="0.34" stop-color="#d0a961"/><stop offset="0.75" stop-color="#92531c"/><stop offset="1" stop-color="#bd8018"/></radialGradient><radialGradient id="未命名的渐变_30-2" cx="29.76" cy="124.89" r="14.38" xlink:href="#未命名的渐变_30"/><radialGradient id="未命名的渐变_55" cx="26.11" cy="84.71" r="74.6" gradientTransform="translate(11.63 -21.98) rotate(-4.37)" gradientUnits="userSpaceOnUse"><stop offset="0" stop-color="#ffec96" stop-opacity="0"/><stop offset="0.32" stop-color="#ffec96"/><stop offset="0.49" stop-color="#d1a966"/><stop offset="0.74" stop-color="#853c17"/><stop offset="1" stop-color="#bd8018" stop-opacity="0.5"/></radialGradient><radialGradient id="未命名的渐变_30-3" cx="2.35" cy="120.6" r="22.18" xlink:href="#未命名的渐变_30"/><radialGradient id="未命名的渐变_12" cx="57" cy="65.09" r="96.5" gradientTransform="translate(11.63 -21.98) rotate(-4.37)" gradientUnits="userSpaceOnUse"><stop offset="0" stop-color="#e6290f"/><stop offset="0.72" stop-color="#8a272b"/><stop offset="1" stop-color="#c7161d"/></radialGradient><radialGradient id="未命名的渐变_12-2" cx="54.84" cy="60.88" r="84.03" xlink:href="#未命名的渐变_12"/><linearGradient id="未命名的渐变_28" x1="96.08" y1="100.61" x2="46.38" y2="69.25" gradientTransform="translate(11.63 -21.98) rotate(-4.37)" gradientUnits="userSpaceOnUse"><stop offset="0" stop-color="#e50012"/><stop offset="1" stop-color="#772a2e" stop-opacity="0"/></linearGradient><radialGradient id="未命名的渐变_40" cx="18.54" cy="64.77" r="27.79" gradientTransform="translate(11.63 -21.98) rotate(-4.37)" gradientUnits="userSpaceOnUse"><stop offset="0" stop-color="#ffec96" stop-opacity="0"/><stop offset="0.33" stop-color="#cda65e" stop-opacity="0.46"/><stop offset="0.7" stop-color="#92531c"/><stop offset="1" stop-color="#92531c" stop-opacity="0"/></radialGradient></defs><g id="Layer_2" data-name="Layer 2"><g id="图层_1" data-name="图层 1"><path class="cls-1" d="M37.82,8.45c-1.21,7.1,7.09,7.25,7.09,7.25,10.59-.52,19.3-9,19.3-9,3.54-3.69,5.85-4.64,7.91-4.6,4.28.08,4.93,3.31,4.93,3.31a5,5,0,0,1-1.93,5.79c-1.19.86-1.8,1.71-1.35,2.58s2.44.5,2.44.5c10.9-2,17.34-4.83,21.19-7.42a67.5,67.5,0,0,0-60,.34A1.6,1.6,0,0,1,37.82,8.45Z"/><path class="cls-2" d="M20.94,96.14c6.74-12.26,22.67-7.86,22.67-7.86,7-7.47,17.63-4,17.63-4,6.21,2,9,5.66,10.11,8.2a12.6,12.6,0,0,1-.69,11.79c6.06,8.63.28,14.5.28,14.5-2.49,3-7,4.23-11.61,3.81-7.91-.71-10.27-5.69-10.27-5.69,4.69.4,7.31-1.24,9.3-3.58,4.12-4.88,1.45-10.82,1.45-10.82a10.37,10.37,0,0,0-5.39-5.15c-4.43-2-9.62,0-9.62,0-10,4.31-8.68,15.55-8.68,15.55,1.36,12.78,18.27,16.35,18.27,16.35,15.94,2,24.7-5.63,29.43-11.84a26.83,26.83,0,0,0,5.64-16.8C88.6,86.2,72.77,80.8,72.77,80.8c-8.26-2.21-16.46-4-16.46-4C47,74.15,42.25,68.9,39.79,64.88a23.4,23.4,0,0,1-3-15.83c.82-5.5,2.82-8.63,4.29-10.28a17.54,17.54,0,0,0-2.67,3.28s-8.56,13.2,0,27.67c-8.67-4.74-10-15.09-10-15.09C24.63,33.18,42.27,23.9,42.27,23.9c-12.55-3.16-7-15.43-7-15.43l.08-.16a67.68,67.68,0,0,0-3,117.18C13.71,111.34,20.94,96.14,20.94,96.14Z"/><path class="cls-3" d="M41.38,99.47c.2-.1.34-.23.55-.32,0,0,5.19-2,9.62,0a10.35,10.35,0,0,1,5.39,5.14s2.67,5.94-1.45,10.82a14.72,14.72,0,0,1-1.19,1.18,10,10,0,0,0,4.06-2.94c4.12-4.88,1.45-10.82,1.45-10.82a10.37,10.37,0,0,0-5.39-5.15c-4.43-2-9.62,0-9.62,0A14.44,14.44,0,0,0,41.38,99.47Z"/><path class="cls-4" d="M72.77,80.8c-8.26-2.21-16.46-4-16.46-4C47,74.15,42.25,68.9,39.79,64.88a23.4,23.4,0,0,1-3-15.83c.82-5.5,2.82-8.63,4.29-10.28a17.54,17.54,0,0,0-2.67,3.28S31.56,52.6,36.2,65.16c.26.5.42,1,.72,1.49,2.46,4,7.18,9.27,16.52,11.87,0,0,8.2,1.84,16.46,4,0,0,15.83,5.4,16.69,19.84A26.83,26.83,0,0,1,81,119.21,32.62,32.62,0,0,1,74,126a31.2,31.2,0,0,0,9.84-8.6,26.83,26.83,0,0,0,5.64-16.8C88.6,86.2,72.77,80.8,72.77,80.8Z"/><path class="cls-5" d="M20.94,96.14a15.7,15.7,0,0,1,4.2-5,15.57,15.57,0,0,0-7.07,6.71,20.93,20.93,0,0,0,.52,16.31,68.28,68.28,0,0,0,13.74,11.28C13.72,111.34,20.94,96.14,20.94,96.14Z"/><path class="cls-6" d="M106.22,12a11.12,11.12,0,0,1-1.29,3.71c-3.44,6.43-17.56,4.48-17.56,4.48C72.38,18.83,64.86,27,64.86,27,79.78,19.4,96,26.47,96,26.47l-5,5.89a4.32,4.32,0,0,1-5.54.93c-4-2.42-12.49-5.11-19-.08a44.15,44.15,0,0,0-4,4.31,20.47,20.47,0,0,1-4.26,4,4.94,4.94,0,0,1-4,.59,2.81,2.81,0,0,1-1.93-2.38,3.63,3.63,0,0,1,2.33-4.13,7.67,7.67,0,0,1,3.65-.12S54,32.3,47.37,34.7a17.86,17.86,0,0,0-4.65,2.55c-3.43,4-2.63,10.73-.95,13.85C48.9,64.28,68.66,64.43,68.66,64.43c3.56.06,11.32-.16,14.74.11A62.1,62.1,0,0,1,100.82,68c15.28,5.61,17.94,16.53,17.94,16.53a27.79,27.79,0,0,1,.57,14.55c1.49-24.77-30.15-27.81-30.15-27.81,12.09,4.68,18.59,9.54,21.23,13.54,7,10.54,2.41,22.25,1.28,25.48-3.91,11.16-11,16.67-12.92,18,.86-.52,1.6-1.09,2.42-1.63l-.26.23A67.7,67.7,0,0,0,106.22,12Z"/><path class="cls-7" d="M98.77,128.27c-.19.11-.34.24-.52.35Z"/><path class="cls-8" d="M68.66,64.43c3.56.06,11.32-.16,14.74.11A62.1,62.1,0,0,1,100.82,68c15.28,5.61,17.94,16.53,17.94,16.53a26.24,26.24,0,0,1,1.13,6.06,1.94,1.94,0,0,1,.07.19c-.06-32.09-29.3-33.42-29.3-33.42C74.59,55,75.13,46.51,75.13,46.51c.21-9.47,10-12.1,12.9-12.66a4.27,4.27,0,0,1-2.55-.56c-4-2.42-12.49-5.11-19-.08a44.15,44.15,0,0,0-4,4.31,20.47,20.47,0,0,1-4.26,4,4.94,4.94,0,0,1-4,.59,2.81,2.81,0,0,1-1.93-2.38,3.63,3.63,0,0,1,2.33-4.13,7.67,7.67,0,0,1,3.65-.12S54,32.3,47.37,34.7a17.86,17.86,0,0,0-4.65,2.55c-3.43,4-2.63,10.73-.95,13.85C48.9,64.28,68.66,64.43,68.66,64.43Z"/><path class="cls-9" d="M39.75,25.56l-.35.11S21.76,34.94,25.46,56.39c0,0,1.34,10.36,10,15.1a27.63,27.63,0,0,1-2.88-6.88,24.16,24.16,0,0,1-4.26-10C25.51,38.32,35,29.07,39.75,25.56Z"/></g></g></svg>